o BoozleButton
v 0.4 0.3 -0.85
v -0.4 0.3 -0.85
v -0.5 0 -1.05
v 0.5 0 -1.05
v 1.05 0 -0.5
v 0.85 0.3 -0.4
v -0.85 0.3 -0.4
v -0.85 0.3 0.4
v -1.05 0 0.5
v -1.05 0 -0.5
v -0.4 0.3 0.85
v 0.4 0.3 0.85
v 0.5 0 1.05
v -0.5 0 1.05
v 0.85 0.3 0.4
v 1.05 0 0.5
vt 0.795454545454545 0.772727272727273
vt 0.431818181818182 0.772727272727273
vt 0.25 1
vt 0.704545454545454 1
vt 0.954545454545454 0.75
vt 1 0.568181818181818
vt 0.227272727272727 0.568181818181818
vt 0.227272727272727 0.204545454545455
vt 0 0.295454545454545
vt 0 0.75
vt 0.431818181818182 0
vt 0.795454545454545 0
vt 0.704545454545454 0.0454545454545454
vt 0.25 0.0454545454545454
vt 1 0.204545454545455
vt 0.954545454545454 0.295454545454545
vn -0.577350269189626 -0.577350269189626 0.577350269189626
vn 0 -0.554700196225229 0.832050294337844
vn 0.577350269189626 -0.577350269189626 0.577350269189626
vn 0.832050294337844 -0.554700196225229 0
vn 0.577350269189626 -0.577350269189626 -0.577350269189626
vn 0 -0.554700196225229 -0.832050294337844
vn -0.577350269189626 -0.577350269189626 -0.577350269189626
vn -0.832050294337844 -0.554700196225229 0
g BoozleButton
f 1/1/1 2/2/2 3/3/2 4/4/1
f 4/4/1 5/5/1 6/6/1 1/1/1
f 7/7/3 8/8/4 9/9/4 10/10/3
f 10/10/3 3/3/3 2/2/3 7/7/3
f 11/11/5 12/12/6 13/13/6 14/14/5
f 14/14/5 9/9/5 8/8/5 11/11/5
f 15/15/7 6/6/8 5/5/8 16/16/7
f 16/16/7 13/13/7 12/12/7 15/15/7
#h 
