<?xml version="1.0" encoding="UTF-8" standalone="no"?>
<svg
   xmlns:dc="http://purl.org/dc/elements/1.1/"
   xmlns:cc="http://creativecommons.org/ns#"
   xmlns:rdf="http://www.w3.org/1999/02/22-rdf-syntax-ns#"
   xmlns:svg="http://www.w3.org/2000/svg"
   xmlns="http://www.w3.org/2000/svg"
   xmlns:sodipodi="http://sodipodi.sourceforge.net/DTD/sodipodi-0.dtd"
   xmlns:inkscape="http://www.inkscape.org/namespaces/inkscape"
   width="726.2"
   height="726.7"
   viewBox="0 0 192.1 192.3"
   version="1.1"
   id="svg42"
   sodipodi:docname="Color Wheel.svg"
   inkscape:version="1.0.2-2 (e86c870879, 2021-01-15)">
  <metadata
     id="metadata48">
    <rdf:RDF>
      <cc:Work
         rdf:about="">
        <dc:format>image/svg+xml</dc:format>
        <dc:type
           rdf:resource="http://purl.org/dc/dcmitype/StillImage" />
      </cc:Work>
    </rdf:RDF>
  </metadata>
  <defs
     id="defs46" />
  <sodipodi:namedview
     pagecolor="#ffffff"
     bordercolor="#666666"
     borderopacity="1"
     objecttolerance="10"
     gridtolerance="10"
     guidetolerance="10"
     inkscape:pageopacity="0"
     inkscape:pageshadow="2"
     inkscape:window-width="1416"
     inkscape:window-height="873"
     id="namedview44"
     showgrid="false"
     inkscape:zoom="1.1696711"
     inkscape:cx="363.10001"
     inkscape:cy="363.35001"
     inkscape:window-x="1567"
     inkscape:window-y="43"
     inkscape:window-maximized="0"
     inkscape:current-layer="svg42" />
  <path
     fill="#dc0000"
     stroke="#dc0000"
     stroke-width=".3"
     d="M67.5 2l51.7.2-7.3 31.4H77.4z"
     id="path2" />
  <path
     fill="#dc6e00"
     stroke="#dc6e00"
     stroke-width=".3"
     d="M119.2 2.2l45.8 23-23.9 24.7L112 33.6z"
     id="path4" />
  <path
     fill="#dcdc00"
     stroke="#dcdc00"
     stroke-width=".3"
     d="M165 25.2L191.8 68l-33.1 9.5L141 49.9z"
     id="path6" />
  <path
     fill="#6edc00"
     stroke="#6edc00"
     stroke-width=".3"
     d="M191.8 68l.1 50.6-32.3-7.2-1-33.8z"
     id="path8" />
  <path
     fill="#00dc00"
     stroke="#00dc00"
     stroke-width=".3"
     d="M192 118.6l-24 45-24.5-22.5 16-29.7z"
     id="path10" />
  <path
     fill="#00dc6e"
     stroke="#00dc6e"
     stroke-width=".3"
     d="M168 163.5l-43.4 27-9.2-31 28-18.4z"
     id="path12" />
  <path
     fill="#00dcdc"
     stroke="#00dcdc"
     stroke-width=".3"
     d="M124.6 190.4l-53.2-.2 9.5-30.5 34.5-.1z"
     id="path14" />
  <path
     fill="#006edc"
     stroke="#006edc"
     stroke-width=".3"
     d="M71.4 190.2L28.8 168l22.4-24.4 29.7 16.1z"
     id="path16" />
  <path
     fill="#0000dc"
     stroke="#0000dc"
     stroke-width=".3"
     d="M28.8 168l-29-42.3 33.7-10.9 17.7 28.8z"
     id="path18" />
  <path
     fill="#6e00dc"
     stroke="#6e00dc"
     stroke-width=".3"
     d="M-.1 125.7l.3-51.9 32.4 7.3.9 33.7z"
     id="path20" />
  <path
     fill="#dc00dc"
     stroke="#dc00dc"
     stroke-width=".3"
     d="M.2 73.8l24-45 24.4 22.5-16 29.8z"
     id="path22" />
  <path
     fill="#dc0064"
     stroke="#dc006e"
     stroke-width=".3"
     d="M24.2 28.9l43.3-27 10 31.7-28.9 17.7z"
     id="path24" />
  <path
     stroke-width=".3"
     d="M87 14.2q0 1-.5 1.7-.4.8-1.4 1.1l1 .8 1.1 1.6 2 3.1h-2l-1.7-2.8q-.9-1.3-1.5-1.8-.6-.4-1.3-.4H82v5h-1.7V11h3.2q1.1 0 2 .4.7.5 1.1 1.2.4.7.4 1.6zm-1.7 0q0-.9-.5-1.3-.5-.5-1.4-.5H82V16h1q1.1 0 1.7-.4.6-.3.6-1.4zm6.9-1.8V16H97v1.4h-4.7V21h5v1.5h-6.7V11h6.6v1.4zm17.8 4.2q0 1.8-.7 3.1-.8 1.3-2.3 2-1.4.8-3.2.8h-4.4V11h4.4q1.9 0 3.3.7t2.2 2q.7 1.3.7 2.9zm-1.7 0q0-1.9-1.2-3-1.2-1.2-3.6-1.2H101V21h2.6q2.2 0 3.4-1.1 1.2-1.2 1.2-3.2zM124 21q-.5.7-1.2 1.1-.8.4-1.7.4-.9 0-1.8-.5-.8-.5-1.2-1.2-.5-.8-.5-1.6 0-.9.5-1.6.4-.7 1-1.2.8-.4 1.7-.4.9 0 1.8.5.8.5 1.3 1.2.4.8.4 1.6 0 .9-.4 1.6zm-5.1-3q-.4.6-.4 1.3 0 .6.4 1.1.3.6.9.9l1.2.4q.6 0 1.2-.3.5-.3 1-1 .2-.4.2-1t-.3-1.2q-.3-.6-1-1l-1.2-.4q-.7 0-1.2.4-.5.3-.8.9zm9.8 4.1q-.3.5-.7.7-.4.2-1 .1l.3.7v1l.2 2-1-.5v-1.8q0-.9-.2-1.2-.2-.4-.5-.6l-.4-.2-1.3 2.4-.8-.5 3.1-5.4 1.5.9q.5.3.8.7.3.4.2.9l-.2.8zm-.8-.4q.2-.4.1-.8 0-.3-.5-.6l-.7-.4-1 1.7.5.3q.5.3 1 .3.3 0 .6-.5zm4.1 7.5l.2-2L130 26l-1.6 1.2-.8-.5 5.5-4 .5.3-.7 6.8zm.6-5.3l-2 1.5 1.7 1zm8.2 3.2l.8.5-3.1 5.4-.7-.4-1.2-6.3-2.4 4.2-.8-.5 3.1-5.4.7.4 1.2 6.3zm4.3 3.3q-.6-.3-1.2-.3-.7 0-1.2.3-.6.3-1 .9l-.3 1.2q0 .6.4 1.2.3.6 1 1l.5.2.8.2.6-1.1-1-.6.4-.7 1.8 1-1.3 2.3q-1.2-.1-2.2-.7-1-.6-1.5-1.4-.4-.7-.4-1.6 0-.8.5-1.4.4-.8 1.1-1.2.8-.5 1.7-.5.9 0 1.7.5l.9.6.8 1-.5.8-.7-1-.9-.7zm3.9 2.4l-1 1.6 2.3 1.3-.4.7-2.2-1.3-1 1.7 2.4 1.4-.4.6-3.2-1.8 3.1-5.4 3.1 1.8-.4.7zM157.8 42l.5 1-4-.5-3 1.7-.5-.8 3-1.8 1.6-3.7.5 1-1 2.7zm.7 3l-1.8 1 1.4 2.4-.8.4-1.4-2.4-1.8 1 1.5 2.6-.7.4-2-3.4 5.8-3.3 2 3.3-.8.4zm-.3 9.5l-.7.5-2-3.5 5.8-3.4.5.9-5 3zm2.5 4.3l-.8.4-2-3.5 5.8-3.3.5.8-5 3zm5.8 5q-.8.5-1.7.5-1 0-1.8-.5t-1.4-1.5q-.5-.9-.5-1.8 0-1 .5-1.7.4-.8 1.2-1.2.8-.5 1.7-.5 1 0 1.7.4.9.5 1.4 1.4.6 1 .6 2 0 .9-.5 1.7-.4.7-1.2 1.2zm-3.2-5.4q-.6.4-1 1l-.2 1.2q0 .7.3 1.3.4.7 1 1 .5.4 1.2.4t1.4-.3l.9-.9q.3-.6.3-1.3 0-.7-.3-1.4-.4-.7-1-1-.6-.4-1.3-.4-.7 0-1.3.4zm8.5 7.9l.4.8-3 4 4.9-.8.5.8-7.2 1-.2-.1 3.7-4.7-5.9.8V68l4.4-5.7.5.8-3 4zM171.3 84.4h-1.5v-6.9h11.5v1.7h-10zm-1.5 1.5h11.5v1.6h-11.5zm11.5 13.4v1.6h-11.5v-1.7h9l-4.5-3.6v-.3l4.4-3.6h-9v-1.6h11.6v1.5l-4.7 3.9zm-1.5 5.8h-3.5v4.8h-1.5V105h-3.5v5h-1.5v-6.6h11.5v6.5h-1.5zM174.5 123.1q.4-.7.4-1.5 0-.7-.4-1.4t-1.1-1.1q-.7-.5-1.5-.5t-1.5.5q-.7.4-1.1 1.1l-.3.7-.3 1 1.4.8.7-1.3.9.5-1.3 2.2-2.8-1.6q.1-1.5.8-2.7.7-1.3 1.7-1.8t2-.5q1 0 1.8.5 1 .6 1.5 1.5t.5 2q0 1.1-.6 2.2l-.8 1-1.1 1-1-.6 1.2-.9.9-1zm-5.6 7.2q-.6-.4-.9-.9-.2-.5-.1-1.2l-.8.3-1.3.1-2.5.2.7-1.1 2.2-.2q1 0 1.5-.2t.7-.6l.3-.4-3-1.7.6-1 6.7 3.9-1.1 1.8q-.4.7-.9 1-.5.3-1 .3-.6 0-1.1-.3zm.5-1q.5.3 1 .1.4 0 .7-.6l.5-.8-2.1-1.2-.4.6q-.3.6-.3 1 0 .5.6.9zm-1.2 4.5l-2-1.1-1.6 2.7-.9-.5 1.6-2.7-2-1.2-1.8 3-.8-.6 2.2-3.9 6.7 3.9-2.2 3.8-.9-.5zm-3 5.2l-2-1.2-1.6 2.7-.9-.5 1.6-2.7-2-1.2-1.7 3-.9-.6 2.3-3.8 6.6 3.8-2.2 3.8-.8-.5zm-4.6 9.9l-.5.9-6.7-3.8.5-.9 7.7-1.5-5.1-3 .5-.8 6.7 3.8-.5.8-7.7 1.5zM147.5 149.6l.5-.2 1 1q-1 .6-1.2 1-.3.3-.2.8 0 .4.6 1.3l5.2 9-1.3.8-5.3-9q-.6-1.2-.8-2-.1-1 .3-1.5.3-.7 1.2-1.2zm-9.3 9.5l2.7 2 4-2.2-.5-3.4 1.4-.8 1.4 11.5-1 .5-9.4-6.8zm7.3 5.4l-.5-4.1-2.8 1.6zM130 170q-.8-1.3-.8-2.7 0-1.5.8-2.7.8-1.2 2.3-2l3.5-2 5.3 9-3.5 2q-1.5 1-3 1-1.4 0-2.6-.6-1.2-.6-2-2zm1.4-.7q.9 1.5 2.4 1.8 1.5.4 3.3-.7l2-1.1-4-6.8-2 1.2q-1.8 1-2.2 2.4-.5 1.5.5 3.2zM129 175l-1.6-2.7-3.8 2.2-.7-1.2 3.8-2.2-1.6-2.8-4 2.3-.7-1.2 5.3-3 5.3 9-5.2 3.1-.7-1.2zM108 181.1v-1.4q1.7 1 3.3 1 1.2 0 2-.6 1-.5 1.4-1.4.5-.8.5-1.8t-.5-1.7q-.5-.9-1.3-1.4-.9-.5-2-.5-1.9 0-3.5 1.1V173q1.6-.8 3.5-.8 1.7 0 2.9.7 1.1.7 1.7 1.8.6 1.2.6 2.4 0 1.3-.7 2.5-.7 1.1-1.9 1.8-1.2.6-2.6.6-1.6 0-3.4-.8zm-7.6.7h-1.7l3.6-4.5v-5.1h1.4v5l3.6 4.6h-1.7l-2.6-3.3zm-8.1-9.6l1.2 2.8h4.1l1.3-2.8h1.4l-4.2 9.6h-1l-4.3-9.6zm3.4 7.5l1.4-3.5h-3zm-13.6 2.1h-1.3v-9.6H82l6.4 7.4v-7.4h1.4v9.6h-1.2l-6.5-7.5zM70.4 168.8l-.3 2.5 2.9 1.6 2-1.5 1 .6-6.8 5-.7-.4.9-8.4zm-.7 6.6l2.4-1.8-2-1.2zm-7-9.9l.5-.8 6 3.5-7.6 3.3 4 2.3-.5.8-5.7-3.3L67 168zm-3.7-2.2q-.9-.6-1.6-.4-.8.3-1.4 1.3l-2.2 3.9-1-.6 2.2-3.8q.8-1.4 2-1.7 1.1-.4 2.6.4 1.4.9 1.7 2 .3 1.1-.5 2.6l-2.2 3.8-1-.5 2.2-3.9q.6-1 .5-1.8-.2-.7-1.2-1.3zm-10.4-.7q.4-.6.9-.8.5-.3 1.2-.2l-.3-.7-.1-1.4-.2-2.4 1.1.7.2 2.2q0 1 .2 1.5.2.4.6.7l.4.2 1.7-2.9 1 .6-3.9 6.6-1.8-1q-.7-.4-1-1-.3-.5-.3-1 0-.6.3-1zm1 .6q-.3.5-.1 1 0 .3.6.7l.8.4 1.2-2-.6-.4q-.6-.4-1-.3-.5 0-.9.6zM45 162l1.2-2.1-2.7-1.6.5-.8 2.7 1.5 1.2-2-3-1.7.6-.9 3.9 2.3-3.9 6.6-3.8-2.2.5-.8zM30.8 149.3q1.5-.9 3 .3-.5-1.3-.1-2.3.3-1 1.2-1.6 1-.5 1.9-.4 1 .2 1.7.9.7.6 1.3 1.6l1.8 3.2-10 5.7L30 154q-.9-1.5-.6-2.8.2-1.2 1.4-1.8zm1 1.4q-.8.4-.9 1-.1.7.5 1.7l.7 1.2 3-1.8-.6-1q-.6-1-1.3-1.3-.8-.2-1.4.2zm3.9-3.4q-1.6.9-.2 3.4l.9 1.4 3.2-1.8-1-1.5q-.6-1.3-1.4-1.6-.7-.4-1.5 0zm-3.6-9.8l1.3-.8 3.5 6-10 5.8-.9-1.5 8.7-5zm-3-5.5q-.8-1.5-2-1.8-1.1-.3-2.7.7l-5.8 3.3-.8-1.4 5.8-3.4q2-1.2 3.8-.7 1.8.4 3 2.5t.8 3.9q-.5 1.7-2.6 3l-5.8 3.3-.9-1.5 5.8-3.3q1.7-1 2-2 .3-1.2-.6-2.6zM17 128.5l3-1.8-2.3-4 1.3-.8 2.4 4.1 3-1.8-2.5-4.4 1.3-.7 3.4 5.8-10 5.8-3.3-5.7 1.3-.8zM12.6 112v-1l7.7 3.2v.3l-7.7 3.3v-1.1l5.4-2.3zm7.6-1.9h-7.6v-1h7.6zm-3.8-10.7q1 0 2 .5.9.5 1.4 1.4.5 1 .5 2.3 0 1.2-.5 2.1-.5 1-1.4 1.5-1 .5-2 .5t-1.9-.5q-1-.5-1.5-1.4-.5-1-.5-2.3 0-1.2.5-2.1.5-1 1.4-1.5 1-.5 2-.5zm0 7.1q.9 0 1.5-.4.7-.4 1-1 .4-.7.4-1.5 0-.9-.3-1.6-.4-.7-1-1-.7-.5-1.6-.5-.7 0-1.4.4-.6.3-1 1-.5.7-.5 1.6 0 1 .4 1.6.4.7 1 1 .7.4 1.5.4zm2.8-13.1h1V98h-7.6v-1.1h6.6zm-5.7-2.1H16v-3.1h1v3.1h2.4V88h1v4.5h-7.7V88h1zm0-7.9h6.7v1.1h-6.7v2.7h-1v-6.5h1zM15.4 69.1l.4-.6 5 2.9-.4.7-4-2.3 1.1 2.7v.1l-2.9.5 4 2.2-.5.7-5-2.8.4-.7 3-.5zm8.1-2.5l-1.8-.2-1.3 2.2 1.1 1.5-.4.7-3.8-5 .3-.6 6.3.7zm-5-.5L20 68l.9-1.5zm2.6-5.5q-.3.5-.3 1.1 0 .6.3 1.1.3.5.8.9.6.3 1.1.3.6 0 1.1-.3.6-.3.9-1l.2-.4.2-.8-1-.6-.6 1-.6-.4 1-1.6 2 1.2q0 1.1-.6 2-.5 1-1.2 1.4-.8.4-1.5.3-.8 0-1.4-.4-.7-.4-1-1-.5-.7-.5-1.6 0-.8.5-1.6l.6-.8.8-.7.8.4-1 .7-.6.8zm2.2-3.6l1.5.9 1.2-2 .6.3-1.2 2 1.6 1 1.3-2.3.6.4-1.7 3-5-3 1.7-2.8.6.4zm3.4-7.4l.4-.7 5 2.8-.3.7-5.8 1 3.8 2.3-.4.7-5-2.9.4-.6 5.8-1.1zm2.9-3.5l4.3 2.5-.4.7-4.4-2.5-1 1.7-.6-.3L30 44l.7.4zm7.4-2.8l-1.9-.2-1.2 2.2 1.1 1.5-.4.7-3.8-5 .3-.6 6.3.7zm-5-.5l1.4 1.8 1-1.5z"
     id="path34" />
  <path
     d="M62.2 18.8l1.5 2.5 3.4-2 .6 1-3.4 2 1.5 2.6 3.6-2 .7 1-4.9 2.8-4.8-8.3 4.7-2.7.7 1zM59 19.9l.8 1.3q-1.4-.3-2.5.3-.5.3-.7.8-.2.4 0 .9l.4.4q.2.2.7.3h1.2q1.2 0 2 .2l1 .5.8.9q.3.6.3 1.3 0 .6-.4 1.2t-1.1 1q-1.2.7-2.7.6l-.9-1.5q.8.3 1.6.3.7 0 1.4-.4.5-.3.7-.8.1-.5-.1-1l-.5-.5q-.2-.2-.8-.3h-1.6q-1.3 0-2-.4-.7-.3-1.1-1-.4-.7-.3-1.3 0-.7.4-1.3.4-.6 1.1-1 1-.6 2.3-.5zm-3.4 6.9q.6 1.1.6 2.4 0 1.3-.6 2.5-.7 1.2-2.1 2-1.3.7-2.7.7-1.3 0-2.4-.6-1.1-.7-1.8-1.8-.6-1.1-.7-2.4 0-1.3.6-2.5.7-1.2 2.1-2 1.3-.7 2.7-.8 1.3 0 2.5.7 1 .6 1.8 1.8zm-7.8 4.5q.6.9 1.4 1.3.8.5 1.8.5t1.8-.6q1-.5 1.5-1.3t.6-1.7q0-1-.6-2-.4-.8-1.2-1.3-.8-.5-1.8-.5t-2 .5q-1 .6-1.5 1.4-.5.9-.5 1.8 0 1 .5 1.9zM44 31q.4.7.4 1.4t-.6 1.4l1 .2 1.5.7 2.8 1.3-1.5.8-2.5-1.2q-1-.6-1.7-.7-.6 0-1.1.2l-.6.3 2.1 3.7-1.2.6-4.8-8.3 2.3-1.3q.8-.5 1.6-.5.7 0 1.3.4.6.3 1 1zm-1.2.7q-.4-.6-1-.8-.5 0-1.2.3l-1 .6 1.5 2.6.8-.5q.8-.4 1-1 .3-.5-.1-1.2z"
     id="path36" />
</svg>
